<svg width="26" height="26" viewBox="0 0 26 26" fill="none" xmlns="http://www.w3.org/2000/svg">
<g clip-path="url(#clip0_56_579)">
<path d="M13 26C20.1797 26 26 20.1797 26 13C26 5.8203 20.1797 0 13 0C5.8203 0 0 5.8203 0 13C0 20.1797 5.8203 26 13 26Z" fill="white"/>
<path d="M13.0278 4.77539L12.917 5.15173V16.0713L13.0278 16.1818L18.0964 13.1857L13.0278 4.77539Z" fill="#343434"/>
<path d="M13.0282 4.77539L7.95947 13.1857L13.0282 16.1818V10.8818V4.77539Z" fill="#8C8C8C"/>
<path d="M13.0278 17.1415L12.9653 17.2177V21.1074L13.0278 21.2896L18.0995 14.147L13.0278 17.1415Z" fill="#3C3C3B"/>
<path d="M13.0278 21.2896V17.1415L7.95898 14.147L13.0278 21.2896Z" fill="#8C8C8C"/>
<path d="M13.0278 16.1819L18.0965 13.1858L13.0278 10.8818V16.1819Z" fill="#141414"/>
<path d="M7.95898 13.1858L13.0278 16.1819V10.8818L7.95898 13.1858Z" fill="#393939"/>
</g>
<defs>
<clipPath id="clip0_56_579">
<rect width="26" height="26" fill="white"/>
</clipPath>
</defs>
</svg>
