<svg width="18" height="18" viewBox="0 0 18 18" fill="none" xmlns="http://www.w3.org/2000/svg">
<path d="M8.99986 7.99986C9.26507 7.99986 9.51943 8.10521 9.70696 8.29275C9.8945 8.48029 9.99986 8.73464 9.99986 8.99986C9.99986 9.26507 9.8945 9.51943 9.70696 9.70696C9.51943 9.8945 9.26507 9.99986 8.99986 9.99986C8.73464 9.99986 8.48029 9.8945 8.29275 9.70696C8.10521 9.51943 7.99986 9.26507 7.99986 8.99986C7.99986 8.73464 8.10521 8.48029 8.29275 8.29275C8.48029 8.10521 8.73464 7.99986 8.99986 7.99986ZM1.21986 1.21986C2.64986 -0.210143 5.74986 0.429857 8.99986 2.55986C12.2499 0.429857 15.3499 -0.210143 16.7799 1.21986C18.2099 2.64986 17.5699 5.74986 15.4399 8.99986C17.5699 12.2499 18.2099 15.3499 16.7799 16.7799C15.3499 18.2099 12.2499 17.5699 8.99986 15.4399C5.74986 17.5699 2.64986 18.2099 1.21986 16.7799C-0.210143 15.3499 0.429857 12.2499 2.55986 8.99986C0.429857 5.74986 -0.210143 2.64986 1.21986 1.21986ZM12.5399 5.45986C13.1499 6.07986 13.7099 6.70986 14.2299 7.33986C15.6099 5.20986 16.1099 3.37986 15.3599 2.63986C14.6199 1.88986 12.7899 2.38986 10.6599 3.76986C11.2899 4.28986 11.9199 4.84986 12.5399 5.45986ZM5.45986 12.5399C4.84986 11.9199 4.28986 11.2899 3.76986 10.6599C2.38986 12.7899 1.88986 14.6199 2.63986 15.3599C3.37986 16.1099 5.20986 15.6099 7.33986 14.2299C6.70986 13.7099 6.07986 13.1499 5.45986 12.5399ZM2.63986 2.63986C1.88986 3.37986 2.38986 5.20986 3.76986 7.33986C4.28986 6.70986 4.84986 6.07986 5.45986 5.45986C6.07986 4.84986 6.70986 4.28986 7.33986 3.76986C5.20986 2.38986 3.37986 1.88986 2.63986 2.63986ZM6.87986 11.1199C7.57986 11.8199 8.29986 12.4599 8.99986 13.0299C9.69986 12.4599 10.4199 11.8199 11.1199 11.1199C11.8199 10.4199 12.4599 9.69986 13.0299 8.99986C12.4599 8.29986 11.8199 7.57986 11.1199 6.87986C10.4199 6.17986 9.69986 5.53986 8.99986 4.96986C8.29986 5.53986 7.57986 6.17986 6.87986 6.87986C6.17986 7.57986 5.53986 8.29986 4.96986 8.99986C5.53986 9.69986 6.17986 10.4199 6.87986 11.1199ZM15.3599 15.3599C16.1099 14.6199 15.6099 12.7899 14.2299 10.6599C13.7099 11.2899 13.1499 11.9199 12.5399 12.5399C11.9199 13.1499 11.2899 13.7099 10.6599 14.2299C12.7899 15.6099 14.6199 16.1099 15.3599 15.3599Z" fill="#AB21EC"/>
</svg>
