<svg width="72" height="72" viewBox="0 0 72 72" fill="none" xmlns="http://www.w3.org/2000/svg">
<g filter="url(#filter0_d_59_434)">
<rect x="16" y="12" width="40" height="40" rx="8" fill="#59E4D7" shape-rendering="crispEdges"/>
<path d="M41.53 27.77C41.46 27.76 41.39 27.76 41.32 27.77C39.77 27.72 38.54 26.45 38.54 24.89C38.54 23.3 39.83 22 41.43 22C43.02 22 44.32 23.29 44.32 24.89C44.31 26.45 43.08 27.72 41.53 27.77Z" fill="#F4FFFC"/>
<path d="M44.7901 34.6999C43.6701 35.4499 42.1001 35.7299 40.6501 35.5399C41.0301 34.7199 41.2301 33.8099 41.2401 32.8499C41.2401 31.8499 41.0201 30.8999 40.6001 30.0699C42.0801 29.8699 43.6501 30.1499 44.7801 30.8999C46.3601 31.9399 46.3601 33.6499 44.7901 34.6999Z" fill="#F4FFFC"/>
<path d="M30.4402 27.77C30.5102 27.76 30.5802 27.76 30.6502 27.77C32.2002 27.72 33.4302 26.45 33.4302 24.89C33.4302 23.29 32.1402 22 30.5402 22C28.9502 22 27.6602 23.29 27.6602 24.89C27.6602 26.45 28.8902 27.72 30.4402 27.77Z" fill="#F4FFFC"/>
<path d="M30.5501 32.8501C30.5501 33.8201 30.7601 34.7401 31.1401 35.5701C29.7301 35.7201 28.2601 35.4201 27.1801 34.7101C25.6001 33.6601 25.6001 31.9501 27.1801 30.9001C28.2501 30.1801 29.7601 29.8901 31.1801 30.0501C30.7701 30.8901 30.5501 31.8401 30.5501 32.8501Z" fill="#F4FFFC"/>
<path d="M36.1198 35.87C36.0398 35.86 35.9498 35.86 35.8598 35.87C34.0198 35.81 32.5498 34.3 32.5498 32.44C32.5598 30.54 34.0898 29 35.9998 29C37.8998 29 39.4398 30.54 39.4398 32.44C39.4298 34.3 37.9698 35.81 36.1198 35.87Z" fill="#F4FFFC"/>
<path d="M32.8698 37.9401C31.3598 38.9501 31.3598 40.6101 32.8698 41.6101C34.5898 42.7601 37.4098 42.7601 39.1298 41.6101C40.6398 40.6001 40.6398 38.9401 39.1298 37.9401C37.4198 36.7901 34.5998 36.7901 32.8698 37.9401Z" fill="#F4FFFC"/>
</g>
<defs>
<filter id="filter0_d_59_434" x="0" y="0" width="72" height="72" filterUnits="userSpaceOnUse" color-interpolation-filters="sRGB">
<feFlood flood-opacity="0" result="BackgroundImageFix"/>
<feColorMatrix in="SourceAlpha" type="matrix" values="0 0 0 0 0 0 0 0 0 0 0 0 0 0 0 0 0 0 127 0" result="hardAlpha"/>
<feOffset dy="4"/>
<feGaussianBlur stdDeviation="8"/>
<feComposite in2="hardAlpha" operator="out"/>
<feColorMatrix type="matrix" values="0 0 0 0 0.501961 0 0 0 0 0.917647 0 0 0 0 1 0 0 0 0.64 0"/>
<feBlend mode="normal" in2="BackgroundImageFix" result="effect1_dropShadow_59_434"/>
<feBlend mode="normal" in="SourceGraphic" in2="effect1_dropShadow_59_434" result="shape"/>
</filter>
</defs>
</svg>
