<svg width="37" height="37" viewBox="0 0 37 37" fill="none" xmlns="http://www.w3.org/2000/svg">
<path d="M18.4998 19.6564C13.6128 19.6564 9.63525 15.6789 9.63525 10.7918C9.63525 5.90475 13.6128 1.92725 18.4998 1.92725C23.3869 1.92725 27.3644 5.90475 27.3644 10.7918C27.3644 15.6789 23.3869 19.6564 18.4998 19.6564ZM18.4998 4.23975C14.8923 4.23975 11.9478 7.18433 11.9478 10.7918C11.9478 14.3993 14.8923 17.3439 18.4998 17.3439C22.1073 17.3439 25.0519 14.3993 25.0519 10.7918C25.0519 7.18433 22.1073 4.23975 18.4998 4.23975Z" fill="white"/>
<path d="M31.7431 35.0729C31.1111 35.0729 30.5869 34.5488 30.5869 33.9167C30.5869 28.5979 25.1602 24.2812 18.5002 24.2812C11.8402 24.2812 6.41357 28.5979 6.41357 33.9167C6.41357 34.5488 5.88941 35.0729 5.25732 35.0729C4.62524 35.0729 4.10107 34.5488 4.10107 33.9167C4.10107 27.3338 10.5607 21.9688 18.5002 21.9688C26.4398 21.9688 32.8994 27.3338 32.8994 33.9167C32.8994 34.5488 32.3752 35.0729 31.7431 35.0729Z" fill="white"/>
</svg>
