<svg width="37" height="40" viewBox="0 0 37 40" fill="none" xmlns="http://www.w3.org/2000/svg">
<path d="M9.52735 37.3622C9.37318 37.3622 9.2036 37.346 9.06485 37.3299L5.71943 36.8453C4.1161 36.6192 2.66693 35.1172 2.42026 33.4052L1.95776 29.8682C1.80359 28.7376 2.26609 27.2679 3.03693 26.4442L9.80485 19.354C8.71026 14.7672 9.97443 9.92196 13.1965 6.57875C18.1915 1.36204 26.3161 1.34589 31.3265 6.57875C33.7469 9.11442 35.0728 12.4899 35.0728 16.0754C35.0728 19.6609 33.7469 23.0364 31.3265 25.5721C28.089 28.9314 23.4794 30.2558 19.1319 29.093L12.3486 36.1832C11.7011 36.8938 10.5448 37.3622 9.52735 37.3622ZM22.2461 5.07672C19.5482 5.07672 16.8657 6.14267 14.8153 8.29073C12.0403 11.1817 11.0382 15.4132 12.1944 19.354C12.3178 19.7901 12.2098 20.2423 11.9015 20.5653L4.65568 28.1562C4.39359 28.4308 4.17776 29.1414 4.22401 29.5129L4.68651 33.0499C4.77901 33.6636 5.4111 34.3581 5.99693 34.4389L9.35776 34.9234C9.72776 34.988 10.4061 34.7619 10.6682 34.4873L17.9448 26.8803C18.2532 26.5573 18.7003 26.4604 19.1011 26.5896C22.8165 27.817 26.8711 26.7672 29.6461 23.8601C31.6194 21.7928 32.714 19.0149 32.714 16.0754C32.714 13.1198 31.6194 10.358 29.6461 8.29073C27.6419 6.15882 24.944 5.07672 22.2461 5.07672Z" fill="white"/>
<path d="M14.168 33.7929C13.875 33.7929 13.5821 33.6799 13.3509 33.4376L9.80504 29.7229C9.35796 29.2546 9.35796 28.4793 9.80504 28.0109C10.2521 27.5426 10.9921 27.5426 11.4392 28.0109L14.985 31.7256C15.4321 32.194 15.4321 32.9692 14.985 33.4376C14.7538 33.6799 14.4609 33.7929 14.168 33.7929Z" fill="white"/>
<path d="M22.354 19.5965C20.4423 19.5965 18.8853 17.9652 18.8853 15.9625C18.8853 13.9598 20.4423 12.3286 22.354 12.3286C24.2657 12.3286 25.8228 13.9598 25.8228 15.9625C25.8228 17.9652 24.2657 19.5965 22.354 19.5965ZM22.354 14.7512C21.7219 14.7512 21.1978 15.3004 21.1978 15.9625C21.1978 16.6247 21.7219 17.1739 22.354 17.1739C22.9861 17.1739 23.5103 16.6247 23.5103 15.9625C23.5103 15.3004 22.9861 14.7512 22.354 14.7512Z" fill="white"/>
</svg>
